<svg xmlns="http://www.w3.org/2000/svg" xmlns:xlink="http://www.w3.org/1999/xlink" width="500" zoomAndPan="magnify" viewBox="0 0 375 374.999991" height="500" preserveAspectRatio="xMidYMid meet" version="1.0"><defs><clipPath id="99dc7ca0a9"><path d="M 77.621094 77.621094 L 164.066406 77.621094 L 164.066406 127.554688 L 77.621094 127.554688 Z M 77.621094 77.621094 " clip-rule="nonzero"/></clipPath><clipPath id="6835576fe5"><path d="M 77 77 L 298 77 L 298 298 L 77 298 Z M 77 77 " clip-rule="nonzero"/></clipPath><clipPath id="0d30cd0176"><path d="M 77.621094 262.066406 L 262.070312 77.617188 L 297.378906 112.925781 L 112.929688 297.375 Z M 77.621094 262.066406 " clip-rule="nonzero"/></clipPath><clipPath id="610da195bc"><path d="M 247.4375 210.984375 L 297.375 210.984375 L 297.375 297.371094 L 247.4375 297.371094 Z M 247.4375 210.984375 " clip-rule="nonzero"/></clipPath><clipPath id="6f8490df55"><path d="M 247 194 L 276 194 L 276 223 L 247 223 Z M 247 194 " clip-rule="nonzero"/></clipPath><clipPath id="fbf85cf428"><path d="M 247.449219 209.339844 L 262.078125 194.714844 L 275.550781 208.1875 L 260.925781 222.8125 Z M 247.449219 209.339844 " clip-rule="nonzero"/></clipPath><clipPath id="e36546d0c6"><path d="M 262.542969 148.242188 L 297.382812 148.242188 L 297.382812 297.363281 L 262.542969 297.363281 Z M 262.542969 148.242188 " clip-rule="nonzero"/></clipPath><clipPath id="2fd22e2aab"><path d="M 77.621094 77.621094 L 226.796875 77.621094 L 226.796875 112.457031 L 77.621094 112.457031 Z M 77.621094 77.621094 " clip-rule="nonzero"/></clipPath><clipPath id="eeb8c11824"><path d="M 150 99 L 179 99 L 179 128 L 150 128 Z M 150 99 " clip-rule="nonzero"/></clipPath><clipPath id="8f42e11bfa"><path d="M 150.019531 114.074219 L 164.644531 99.449219 L 178.121094 112.921875 L 163.496094 127.546875 Z M 150.019531 114.074219 " clip-rule="nonzero"/></clipPath><clipPath id="98a19aa09f"><path d="M 261.496094 113.496094 L 297.378906 113.496094 L 297.378906 206.347656 L 261.496094 206.347656 Z M 261.496094 113.496094 " clip-rule="nonzero"/></clipPath><clipPath id="7e35389593"><path d="M 247.445312 208.769531 L 268.128906 208.769531 L 268.128906 227.824219 L 247.445312 227.824219 Z M 247.445312 208.769531 " clip-rule="nonzero"/></clipPath><clipPath id="6c690e12ae"><path d="M 168.644531 77.621094 L 261.496094 77.621094 L 261.496094 113.503906 L 168.644531 113.503906 Z M 168.644531 77.621094 " clip-rule="nonzero"/></clipPath></defs><g clip-path="url(#99dc7ca0a9)"><path fill="#ffffff" d="M 77.621094 77.621094 L 164.03125 77.621094 L 164.03125 127.554688 L 77.621094 127.554688 Z M 77.621094 77.621094 " fill-opacity="1" fill-rule="nonzero"/></g><g clip-path="url(#6835576fe5)"><g clip-path="url(#0d30cd0176)"><path fill="#ffffff" d="M 77.621094 262.066406 L 262.027344 77.660156 L 297.335938 112.96875 L 112.929688 297.375 Z M 77.621094 262.066406 " fill-opacity="1" fill-rule="nonzero"/></g></g><g clip-path="url(#610da195bc)"><path fill="#ffffff" d="M 247.4375 297.371094 L 247.4375 210.960938 L 297.375 210.960938 L 297.375 297.371094 Z M 247.4375 297.371094 " fill-opacity="1" fill-rule="nonzero"/></g><g clip-path="url(#6f8490df55)"><g clip-path="url(#fbf85cf428)"><path fill="#ffffff" d="M 247.449219 209.339844 L 262.082031 194.707031 L 275.558594 208.179688 L 260.925781 222.8125 Z M 247.449219 209.339844 " fill-opacity="1" fill-rule="nonzero"/></g></g><g clip-path="url(#e36546d0c6)"><path fill="#ffffff" d="M 262.542969 297.363281 L 262.542969 148.210938 L 297.382812 148.210938 L 297.382812 297.363281 Z M 262.542969 297.363281 " fill-opacity="1" fill-rule="nonzero"/></g><g clip-path="url(#2fd22e2aab)"><path fill="#ffffff" d="M 77.621094 77.621094 L 226.773438 77.621094 L 226.773438 112.457031 L 77.621094 112.457031 Z M 77.621094 77.621094 " fill-opacity="1" fill-rule="nonzero"/></g><g clip-path="url(#eeb8c11824)"><g clip-path="url(#8f42e11bfa)"><path fill="#ffffff" d="M 150.019531 114.074219 L 164.652344 99.441406 L 178.128906 112.914062 L 163.496094 127.546875 Z M 150.019531 114.074219 " fill-opacity="1" fill-rule="nonzero"/></g></g><g clip-path="url(#98a19aa09f)"><path fill="#ffffff" d="M 261.496094 206.347656 L 261.496094 113.554688 L 297.378906 113.554688 L 297.378906 206.347656 Z M 261.496094 206.347656 " fill-opacity="1" fill-rule="nonzero"/></g><g clip-path="url(#7e35389593)"><path fill="#ffffff" d="M 247.445312 208.769531 L 268.140625 208.769531 L 268.140625 227.824219 L 247.445312 227.824219 Z M 247.445312 208.769531 " fill-opacity="1" fill-rule="nonzero"/></g><g clip-path="url(#6c690e12ae)"><path fill="#ffffff" d="M 168.644531 77.621094 L 261.4375 77.621094 L 261.4375 113.503906 L 168.644531 113.503906 Z M 168.644531 77.621094 " fill-opacity="1" fill-rule="nonzero"/></g></svg>