<?xml version="1.0" encoding="UTF-8" standalone="no"?>
<!-- Created with Inkscape (http://www.inkscape.org/) -->

<svg
   xmlns:dc="http://purl.org/dc/elements/1.1/"
   xmlns:cc="http://creativecommons.org/ns#"
   xmlns:rdf="http://www.w3.org/1999/02/22-rdf-syntax-ns#"
   xmlns:svg="http://www.w3.org/2000/svg"
   xmlns="http://www.w3.org/2000/svg"
   xmlns:xlink="http://www.w3.org/1999/xlink"
   xmlns:sodipodi="http://sodipodi.sourceforge.net/DTD/sodipodi-0.dtd"
   xmlns:inkscape="http://www.inkscape.org/namespaces/inkscape"
   inkscape:version="0.91 r13725"
   version="1.1"
   id="svg2"
   viewBox="0 0 780 779.99999"
   height="220.13333mm"
   width="220.13333mm"
   sodipodi:docname="TesselationSwastika1ThreeColour.svg">
  <sodipodi:namedview
     inkscape:window-maximized="1"
     inkscape:window-y="-8"
     inkscape:window-x="-8"
     inkscape:window-height="837"
     inkscape:window-width="1600"
     inkscape:object-nodes="true"
     inkscape:snap-smooth-nodes="true"
     showgrid="true"
     inkscape:current-layer="layer1"
     inkscape:document-units="px"
     inkscape:cy="390"
     inkscape:cx="390"
     inkscape:zoom="0.85897437"
     inkscape:pageshadow="2"
     inkscape:pageopacity="0"
     borderopacity="1.0"
     bordercolor="#666666"
     pagecolor="#ffffff"
     id="base"
     fit-margin-top="0"
     fit-margin-left="0"
     fit-margin-right="0"
     fit-margin-bottom="0" />
  <defs
     id="defs4">
    <clipPath
       clipPathUnits="userSpaceOnUse"
       id="clipPath9299">
      <path
         style="opacity:0.49358975;fill:#ff00ff;fill-opacity:1;stroke:none"
         d="m 0,132.36219 780,0 0,779.99999 -780,0 z"
         id="path9301"
         inkscape:connector-curvature="0" />
    </clipPath>
  </defs>
  <metadata
     id="metadata7">
    <rdf:RDF>
      <cc:Work
         rdf:about="">
        <dc:format>image/svg+xml</dc:format>
        <dc:type
           rdf:resource="http://purl.org/dc/dcmitype/StillImage" />
        <dc:title></dc:title>
      </cc:Work>
    </rdf:RDF>
  </metadata>
  <g
     transform="translate(0,-132.36219)"
     inkscape:label="Layer 1"
     inkscape:groupmode="layer"
     id="layer1">
    <g
       id="g9155"
       clip-path="url(#clipPath9299)">
      <path
         id="path4882"
         d="m 0,92.362191 0,19.999999 20,0 0,20 -40,0 0,20 0,20 20,0 0,-20 20,0 0,40 20,0 20,0 0,-20 -20,0 0,-20 40,0 0,-20 0,-20 -20,0 0,20 -20,0 0,-20 0,-19.999999 -40,0 z"
         style="fill:#ff0000;fill-opacity:1;fill-rule:evenodd;stroke:none;stroke-width:1px;stroke-linecap:butt;stroke-linejoin:miter;stroke-opacity:1"
         inkscape:connector-curvature="0" />
      <path
         inkscape:connector-curvature="0"
         style="fill:#ffffff;fill-opacity:1;fill-rule:evenodd;stroke:none;stroke-width:1px;stroke-linecap:butt;stroke-linejoin:miter;stroke-opacity:1"
         d="m 100,112.36219 0,20 20,0 0,20 -40,0 0,20 0,20 20,0 0,-20 20,0 0,40 20,0 20,0 0,-20 -20,0 0,-20 40,0 0,-20 0,-20 -20,0 0,20 -20,0 0,-20 0,-20 -40,0 z"
         id="path8589" />
      <path
         inkscape:connector-curvature="0"
         style="fill:#000000;fill-opacity:1;fill-rule:evenodd;stroke:none;stroke-width:1px;stroke-linecap:butt;stroke-linejoin:miter;stroke-opacity:1"
         d="m 200,132.36219 0,20 20,0 0,20 -40,0 0,20 0,20 20,0 0,-20 20,0 0,40 20,0 20,0 0,-20 -20,0 0,-20 40,0 0,-20 0,-20 -20,0 0,20 -20,0 0,-20 0,-20 -40,0 z"
         id="path8591" />
      <use
         height="100%"
         width="100%"
         transform="translate(300,60.000002)"
         id="use8833"
         xlink:href="#path4882"
         y="0"
         x="0" />
      <use
         height="100%"
         width="100%"
         transform="translate(300,60.000002)"
         id="use8835"
         xlink:href="#path8589"
         y="0"
         x="0" />
      <use
         height="100%"
         width="100%"
         transform="translate(300,60.000002)"
         id="use8837"
         xlink:href="#path8591"
         y="0"
         x="0" />
      <use
         height="100%"
         width="100%"
         transform="translate(600,120)"
         id="use8839"
         xlink:href="#path4882"
         y="0"
         x="0" />
      <use
         height="100%"
         width="100%"
         transform="translate(600,120)"
         id="use8841"
         xlink:href="#path8589"
         y="0"
         x="0" />
      <use
         height="100%"
         width="100%"
         transform="translate(600,120)"
         id="use8843"
         xlink:href="#path8591"
         y="0"
         x="0" />
      <use
         height="100%"
         width="100%"
         transform="translate(-160,20.000001)"
         id="use8849"
         xlink:href="#path8591"
         y="0"
         x="0" />
      <use
         height="100%"
         width="100%"
         transform="translate(140,80.000002)"
         id="use8851"
         xlink:href="#path4882"
         y="0"
         x="0" />
      <use
         height="100%"
         width="100%"
         transform="translate(140,80.000002)"
         id="use8853"
         xlink:href="#path8589"
         y="0"
         x="0" />
      <use
         height="100%"
         width="100%"
         transform="translate(440,140)"
         id="use8855"
         xlink:href="#path4882"
         y="0"
         x="0" />
      <use
         height="100%"
         width="100%"
         transform="translate(140,80.000002)"
         id="use8857"
         xlink:href="#path8591"
         y="0"
         x="0" />
      <use
         height="100%"
         width="100%"
         transform="translate(440,140)"
         id="use8859"
         xlink:href="#path8589"
         y="0"
         x="0" />
      <use
         height="100%"
         width="100%"
         transform="translate(440,140)"
         id="use8861"
         xlink:href="#path8591"
         y="0"
         x="0" />
      <use
         height="100%"
         width="100%"
         transform="translate(740,200)"
         id="use8863"
         xlink:href="#path4882"
         y="0"
         x="0" />
      <use
         height="100%"
         width="100%"
         transform="translate(-20,100)"
         id="use8867"
         xlink:href="#path4882"
         y="0"
         x="0" />
      <use
         height="100%"
         width="100%"
         transform="translate(-20,100)"
         id="use8869"
         xlink:href="#path8589"
         y="0"
         x="0" />
      <use
         height="100%"
         width="100%"
         transform="translate(-20,100)"
         id="use8871"
         xlink:href="#path8591"
         y="0"
         x="0" />
      <use
         height="100%"
         width="100%"
         transform="translate(280,160)"
         id="use8873"
         xlink:href="#path4882"
         y="0"
         x="0" />
      <use
         height="100%"
         width="100%"
         transform="translate(280,160)"
         id="use8875"
         xlink:href="#path8589"
         y="0"
         x="0" />
      <use
         height="100%"
         width="100%"
         transform="translate(280,160)"
         id="use8877"
         xlink:href="#path8591"
         y="0"
         x="0" />
      <use
         height="100%"
         width="100%"
         transform="translate(580,220)"
         id="use8879"
         xlink:href="#path4882"
         y="0"
         x="0" />
      <use
         height="100%"
         width="100%"
         transform="translate(580,220)"
         id="use8881"
         xlink:href="#path8589"
         y="0"
         x="0" />
      <use
         height="100%"
         width="100%"
         transform="translate(580,220)"
         id="use8883"
         xlink:href="#path8591"
         y="0"
         x="0" />
      <use
         height="100%"
         width="100%"
         transform="translate(-180,120)"
         id="use8885"
         xlink:href="#path8591"
         y="0"
         x="0" />
      <use
         height="100%"
         width="100%"
         transform="translate(120,180)"
         id="use8887"
         xlink:href="#path4882"
         y="0"
         x="0" />
      <use
         height="100%"
         width="100%"
         transform="translate(120,180)"
         id="use8889"
         xlink:href="#path8589"
         y="0"
         x="0" />
      <use
         height="100%"
         width="100%"
         transform="translate(120,180)"
         id="use8891"
         xlink:href="#path8591"
         y="0"
         x="0" />
      <use
         height="100%"
         width="100%"
         transform="translate(420,240.00001)"
         id="use8893"
         xlink:href="#path4882"
         y="0"
         x="0" />
      <use
         height="100%"
         width="100%"
         transform="translate(420,240.00001)"
         id="use8895"
         xlink:href="#path8589"
         y="0"
         x="0" />
      <use
         height="100%"
         width="100%"
         transform="translate(420,240.00001)"
         id="use8897"
         xlink:href="#path8591"
         y="0"
         x="0" />
      <use
         height="100%"
         width="100%"
         transform="translate(720,300.00001)"
         id="use8899"
         xlink:href="#path4882"
         y="0"
         x="0" />
      <use
         height="100%"
         width="100%"
         transform="translate(-40,200)"
         id="use8905"
         xlink:href="#path4882"
         y="0"
         x="0" />
      <use
         height="100%"
         width="100%"
         transform="translate(-40,200)"
         id="use8907"
         xlink:href="#path8589"
         y="0"
         x="0" />
      <use
         height="100%"
         width="100%"
         transform="translate(-40,200)"
         id="use8909"
         xlink:href="#path8591"
         y="0"
         x="0" />
      <use
         height="100%"
         width="100%"
         transform="translate(260,260.00001)"
         id="use8911"
         xlink:href="#path4882"
         y="0"
         x="0" />
      <use
         height="100%"
         width="100%"
         transform="translate(260,260.00001)"
         id="use8913"
         xlink:href="#path8589"
         y="0"
         x="0" />
      <use
         height="100%"
         width="100%"
         transform="translate(260,260.00001)"
         id="use8915"
         xlink:href="#path8591"
         y="0"
         x="0" />
      <use
         height="100%"
         width="100%"
         transform="translate(560,320.00001)"
         id="use8917"
         xlink:href="#path4882"
         y="0"
         x="0" />
      <use
         height="100%"
         width="100%"
         transform="translate(560,320.00001)"
         id="use8919"
         xlink:href="#path8589"
         y="0"
         x="0" />
      <use
         height="100%"
         width="100%"
         transform="translate(560,320.00001)"
         id="use8921"
         xlink:href="#path8591"
         y="0"
         x="0" />
      <use
         height="100%"
         width="100%"
         transform="translate(-200,220)"
         id="use8927"
         xlink:href="#path8591"
         y="0"
         x="0" />
      <use
         height="100%"
         width="100%"
         transform="translate(100,280.00001)"
         id="use8929"
         xlink:href="#path4882"
         y="0"
         x="0" />
      <use
         height="100%"
         width="100%"
         transform="translate(100,280.00001)"
         id="use8931"
         xlink:href="#path8589"
         y="0"
         x="0" />
      <use
         height="100%"
         width="100%"
         transform="translate(100,280.00001)"
         id="use8933"
         xlink:href="#path8591"
         y="0"
         x="0" />
      <use
         height="100%"
         width="100%"
         transform="translate(400,340.00001)"
         id="use8935"
         xlink:href="#path4882"
         y="0"
         x="0" />
      <use
         height="100%"
         width="100%"
         transform="translate(400,340.00001)"
         id="use8937"
         xlink:href="#path8589"
         y="0"
         x="0" />
      <use
         height="100%"
         width="100%"
         transform="translate(400,340.00001)"
         id="use8939"
         xlink:href="#path8591"
         y="0"
         x="0" />
      <use
         height="100%"
         width="100%"
         transform="translate(700,400.00001)"
         id="use8941"
         xlink:href="#path4882"
         y="0"
         x="0" />
      <use
         height="100%"
         width="100%"
         transform="translate(700,400.00001)"
         id="use8943"
         xlink:href="#path8589"
         y="0"
         x="0" />
      <use
         height="100%"
         width="100%"
         transform="translate(-60,300.00001)"
         id="use8949"
         xlink:href="#path8589"
         y="0"
         x="0" />
      <use
         height="100%"
         width="100%"
         transform="translate(-60,300.00001)"
         id="use8951"
         xlink:href="#path8591"
         y="0"
         x="0" />
      <use
         height="100%"
         width="100%"
         transform="translate(240,360.00001)"
         id="use8953"
         xlink:href="#path4882"
         y="0"
         x="0" />
      <use
         height="100%"
         width="100%"
         transform="translate(240,360.00001)"
         id="use8955"
         xlink:href="#path8589"
         y="0"
         x="0" />
      <use
         height="100%"
         width="100%"
         transform="translate(240,360.00001)"
         id="use8957"
         xlink:href="#path8591"
         y="0"
         x="0" />
      <use
         height="100%"
         width="100%"
         transform="translate(540,420.00001)"
         id="use8959"
         xlink:href="#path4882"
         y="0"
         x="0" />
      <use
         height="100%"
         width="100%"
         transform="translate(540,420.00001)"
         id="use8961"
         xlink:href="#path8589"
         y="0"
         x="0" />
      <use
         height="100%"
         width="100%"
         transform="translate(540,420.00001)"
         id="use8963"
         xlink:href="#path8591"
         y="0"
         x="0" />
      <use
         height="100%"
         width="100%"
         transform="translate(-220,320.00001)"
         id="use8975"
         xlink:href="#path8591"
         y="0"
         x="0" />
      <use
         height="100%"
         width="100%"
         transform="translate(80,380.00001)"
         id="use8977"
         xlink:href="#path4882"
         y="0"
         x="0" />
      <use
         height="100%"
         width="100%"
         transform="translate(80,380.00001)"
         id="use8979"
         xlink:href="#path8589"
         y="0"
         x="0" />
      <use
         height="100%"
         width="100%"
         transform="translate(80,380.00001)"
         id="use8981"
         xlink:href="#path8591"
         y="0"
         x="0" />
      <use
         height="100%"
         width="100%"
         transform="translate(380,440.00001)"
         id="use8983"
         xlink:href="#path4882"
         y="0"
         x="0" />
      <use
         height="100%"
         width="100%"
         transform="translate(380,440.00001)"
         id="use8985"
         xlink:href="#path8589"
         y="0"
         x="0" />
      <use
         height="100%"
         width="100%"
         transform="translate(380,440.00001)"
         id="use8987"
         xlink:href="#path8591"
         y="0"
         x="0" />
      <use
         height="100%"
         width="100%"
         transform="translate(680,500.00001)"
         id="use8989"
         xlink:href="#path4882"
         y="0"
         x="0" />
      <use
         height="100%"
         width="100%"
         transform="translate(680,500.00001)"
         id="use8991"
         xlink:href="#path8589"
         y="0"
         x="0" />
      <use
         height="100%"
         width="100%"
         transform="translate(-80,400.00001)"
         id="use8997"
         xlink:href="#path8589"
         y="0"
         x="0" />
      <use
         height="100%"
         width="100%"
         transform="translate(-80,400.00001)"
         id="use8999"
         xlink:href="#path8591"
         y="0"
         x="0" />
      <use
         height="100%"
         width="100%"
         transform="translate(220,460.00001)"
         id="use9001"
         xlink:href="#path4882"
         y="0"
         x="0" />
      <use
         height="100%"
         width="100%"
         transform="translate(220,460.00001)"
         id="use9003"
         xlink:href="#path8589"
         y="0"
         x="0" />
      <use
         height="100%"
         width="100%"
         transform="translate(220,460.00001)"
         id="use9005"
         xlink:href="#path8591"
         y="0"
         x="0" />
      <use
         height="100%"
         width="100%"
         transform="translate(520,520.00001)"
         id="use9007"
         xlink:href="#path4882"
         y="0"
         x="0" />
      <use
         height="100%"
         width="100%"
         transform="translate(520,520.00001)"
         id="use9009"
         xlink:href="#path8589"
         y="0"
         x="0" />
      <use
         height="100%"
         width="100%"
         transform="translate(520,520.00001)"
         id="use9011"
         xlink:href="#path8591"
         y="0"
         x="0" />
      <use
         height="100%"
         width="100%"
         transform="translate(60,480.00001)"
         id="use9013"
         xlink:href="#path4882"
         y="0"
         x="0" />
      <use
         height="100%"
         width="100%"
         transform="translate(60,480.00001)"
         id="use9015"
         xlink:href="#path8589"
         y="0"
         x="0" />
      <use
         height="100%"
         width="100%"
         transform="translate(60,480.00001)"
         id="use9017"
         xlink:href="#path8591"
         y="0"
         x="0" />
      <use
         height="100%"
         width="100%"
         transform="translate(-240,420.00001)"
         id="use9019"
         xlink:href="#path8591"
         y="0"
         x="0" />
      <use
         height="100%"
         width="100%"
         transform="translate(360,540.00001)"
         id="use9021"
         xlink:href="#path4882"
         y="0"
         x="0" />
      <use
         height="100%"
         width="100%"
         transform="translate(360,540.00001)"
         id="use9023"
         xlink:href="#path8589"
         y="0"
         x="0" />
      <use
         height="100%"
         width="100%"
         transform="translate(360,540.00001)"
         id="use9025"
         xlink:href="#path8591"
         y="0"
         x="0" />
      <use
         height="100%"
         width="100%"
         transform="translate(660,600.00001)"
         id="use9027"
         xlink:href="#path4882"
         y="0"
         x="0" />
      <use
         height="100%"
         width="100%"
         transform="translate(660,600.00001)"
         id="use9029"
         xlink:href="#path8589"
         y="0"
         x="0" />
      <use
         height="100%"
         width="100%"
         transform="translate(-100,500.00001)"
         id="use9035"
         xlink:href="#path8589"
         y="0"
         x="0" />
      <use
         height="100%"
         width="100%"
         transform="translate(-100,500.00001)"
         id="use9037"
         xlink:href="#path8591"
         y="0"
         x="0" />
      <use
         height="100%"
         width="100%"
         transform="translate(200,560.00001)"
         id="use9039"
         xlink:href="#path4882"
         y="0"
         x="0" />
      <use
         height="100%"
         width="100%"
         transform="translate(200,560.00001)"
         id="use9041"
         xlink:href="#path8589"
         y="0"
         x="0" />
      <use
         height="100%"
         width="100%"
         transform="translate(200,560.00001)"
         id="use9043"
         xlink:href="#path8591"
         y="0"
         x="0" />
      <use
         height="100%"
         width="100%"
         transform="translate(500,620.00001)"
         id="use9045"
         xlink:href="#path4882"
         y="0"
         x="0" />
      <use
         height="100%"
         width="100%"
         transform="translate(500,620.00001)"
         id="use9047"
         xlink:href="#path8589"
         y="0"
         x="0" />
      <use
         height="100%"
         width="100%"
         transform="translate(500,620.00001)"
         id="use9049"
         xlink:href="#path8591"
         y="0"
         x="0" />
      <use
         height="100%"
         width="100%"
         transform="translate(800,680.00001)"
         id="use9051"
         xlink:href="#path4882"
         y="0"
         x="0" />
      <use
         height="100%"
         width="100%"
         transform="translate(40,580.00001)"
         id="use9053"
         xlink:href="#path4882"
         y="0"
         x="0" />
      <use
         height="100%"
         width="100%"
         transform="translate(40,580.00001)"
         id="use9055"
         xlink:href="#path8589"
         y="0"
         x="0" />
      <use
         height="100%"
         width="100%"
         transform="translate(40,580.00001)"
         id="use9057"
         xlink:href="#path8591"
         y="0"
         x="0" />
      <use
         height="100%"
         width="100%"
         transform="translate(340,640.00001)"
         id="use9059"
         xlink:href="#path4882"
         y="0"
         x="0" />
      <use
         height="100%"
         width="100%"
         transform="translate(340,640.00001)"
         id="use9061"
         xlink:href="#path8589"
         y="0"
         x="0" />
      <use
         height="100%"
         width="100%"
         transform="translate(340,640.00001)"
         id="use9063"
         xlink:href="#path8591"
         y="0"
         x="0" />
      <use
         height="100%"
         width="100%"
         transform="translate(640,700.00001)"
         id="use9065"
         xlink:href="#path4882"
         y="0"
         x="0" />
      <use
         height="100%"
         width="100%"
         transform="translate(640,700.00001)"
         id="use9067"
         xlink:href="#path8589"
         y="0"
         x="0" />
      <use
         height="100%"
         width="100%"
         transform="translate(-120,600.00001)"
         id="use9073"
         xlink:href="#path8589"
         y="0"
         x="0" />
      <use
         height="100%"
         width="100%"
         transform="translate(-120,600.00001)"
         id="use9075"
         xlink:href="#path8591"
         y="0"
         x="0" />
      <use
         height="100%"
         width="100%"
         transform="translate(180,660.00001)"
         id="use9077"
         xlink:href="#path4882"
         y="0"
         x="0" />
      <use
         height="100%"
         width="100%"
         transform="translate(180,660.00001)"
         id="use9079"
         xlink:href="#path8589"
         y="0"
         x="0" />
      <use
         height="100%"
         width="100%"
         transform="translate(180,660.00001)"
         id="use9081"
         xlink:href="#path8591"
         y="0"
         x="0" />
      <use
         height="100%"
         width="100%"
         transform="translate(480,720.00001)"
         id="use9083"
         xlink:href="#path4882"
         y="0"
         x="0" />
      <use
         height="100%"
         width="100%"
         transform="translate(480,720.00001)"
         id="use9085"
         xlink:href="#path8589"
         y="0"
         x="0" />
      <use
         height="100%"
         width="100%"
         transform="translate(480,720.00001)"
         id="use9087"
         xlink:href="#path8591"
         y="0"
         x="0" />
      <use
         height="100%"
         width="100%"
         transform="translate(780,780.00002)"
         id="use9089"
         xlink:href="#path4882"
         y="0"
         x="0" />
      <use
         height="100%"
         width="100%"
         transform="translate(20,680.00001)"
         id="use9091"
         xlink:href="#path4882"
         y="0"
         x="0" />
      <use
         height="100%"
         width="100%"
         transform="translate(20,680.00001)"
         id="use9093"
         xlink:href="#path8589"
         y="0"
         x="0" />
      <use
         height="100%"
         width="100%"
         transform="translate(20,680.00001)"
         id="use9095"
         xlink:href="#path8591"
         y="0"
         x="0" />
      <use
         height="100%"
         width="100%"
         transform="translate(320,740.00001)"
         id="use9097"
         xlink:href="#path4882"
         y="0"
         x="0" />
      <use
         height="100%"
         width="100%"
         transform="translate(320,740.00001)"
         id="use9099"
         xlink:href="#path8589"
         y="0"
         x="0" />
      <use
         height="100%"
         width="100%"
         transform="translate(320,740.00001)"
         id="use9101"
         xlink:href="#path8591"
         y="0"
         x="0" />
      <use
         height="100%"
         width="100%"
         transform="translate(620,800.00002)"
         id="use9103"
         xlink:href="#path4882"
         y="0"
         x="0" />
      <use
         height="100%"
         width="100%"
         transform="translate(-140,700.00001)"
         id="use9107"
         xlink:href="#path8589"
         y="0"
         x="0" />
      <use
         height="100%"
         width="100%"
         transform="translate(-140,700.00001)"
         id="use9109"
         xlink:href="#path8591"
         y="0"
         x="0" />
      <use
         height="100%"
         width="100%"
         transform="translate(160,760.00002)"
         id="use9111"
         xlink:href="#path4882"
         y="0"
         x="0" />
      <use
         height="100%"
         width="100%"
         transform="translate(160,760.00002)"
         id="use9113"
         xlink:href="#path8589"
         y="0"
         x="0" />
      <use
         height="100%"
         width="100%"
         transform="translate(160,760.00002)"
         id="use9115"
         xlink:href="#path8591"
         y="0"
         x="0" />
      <use
         height="100%"
         width="100%"
         transform="translate(0,780.00002)"
         id="use9117"
         xlink:href="#path4882"
         y="0"
         x="0" />
      <use
         height="100%"
         width="100%"
         transform="translate(0,780.00002)"
         id="use9119"
         xlink:href="#path8589"
         y="0"
         x="0" />
      <use
         height="100%"
         width="100%"
         transform="translate(160,-20)"
         id="use9121"
         xlink:href="#path4882"
         y="0"
         x="0" />
      <use
         height="100%"
         width="100%"
         transform="translate(160,-20)"
         id="use9123"
         xlink:href="#path8589"
         y="0"
         x="0" />
      <use
         height="100%"
         width="100%"
         transform="translate(160,-20)"
         id="use9125"
         xlink:href="#path8591"
         y="0"
         x="0" />
      <use
         height="100%"
         width="100%"
         transform="translate(-140,-80.000001)"
         id="use9127"
         xlink:href="#path8591"
         y="0"
         x="0" />
      <use
         height="100%"
         width="100%"
         transform="translate(460,40.000001)"
         id="use9129"
         xlink:href="#path4882"
         y="0"
         x="0" />
      <use
         height="100%"
         width="100%"
         transform="translate(460,40.000001)"
         id="use9131"
         xlink:href="#path8589"
         y="0"
         x="0" />
      <use
         height="100%"
         width="100%"
         transform="translate(460,40.000001)"
         id="use9133"
         xlink:href="#path8591"
         y="0"
         x="0" />
      <use
         height="100%"
         width="100%"
         transform="translate(760,100)"
         id="use9135"
         xlink:href="#path4882"
         y="0"
         x="0" />
      <use
         height="100%"
         width="100%"
         transform="translate(320,-40)"
         id="use9137"
         xlink:href="#path4882"
         y="0"
         x="0" />
      <use
         height="100%"
         width="100%"
         transform="translate(320,-40)"
         id="use9139"
         xlink:href="#path8589"
         y="0"
         x="0" />
      <use
         height="100%"
         width="100%"
         transform="translate(320,-40)"
         id="use9141"
         xlink:href="#path8591"
         y="0"
         x="0" />
      <use
         height="100%"
         width="100%"
         transform="translate(620,20.000001)"
         id="use9143"
         xlink:href="#path4882"
         y="0"
         x="0" />
      <use
         height="100%"
         width="100%"
         transform="translate(620,20.000001)"
         id="use9145"
         xlink:href="#path8589"
         y="0"
         x="0" />
      <use
         height="100%"
         width="100%"
         transform="translate(480,-60)"
         id="use9149"
         xlink:href="#path8589"
         y="0"
         x="0" />
      <use
         height="100%"
         width="100%"
         transform="translate(480,-60)"
         id="use9151"
         xlink:href="#path8591"
         y="0"
         x="0" />
      <use
         height="100%"
         width="100%"
         transform="translate(780,0)"
         id="use9153"
         xlink:href="#path4882"
         y="0"
         x="0" />
    </g>
  </g>
</svg>
